<mxfile host="www.draw.io" modified="2020-02-11T13:43:04.088Z" agent="Mozilla/5.0 (Windows NT 10.0; WOW64) AppleWebKit/537.36 (KHTML, like Gecko) Chrome/63.0.3239.132 Safari/537.36" etag="ji76mzAaVan_f8M19k1q" version="12.6.7" type="github">
  <diagram id="9g5YoI2fS25pkF99L6Iy" name="Page-1">
    <mxGraphModel dx="1422" dy="742" grid="1" gridSize="10" guides="1" tooltips="1" connect="1" arrows="1" fold="1" page="1" pageScale="1" pageWidth="827" pageHeight="1169" math="0" shadow="0">
      <root>
        <mxCell id="0"/>
        <mxCell id="1" parent="0"/>
        <mxCell id="9VM56Yk_VsYJPP7YuBCW-13" value="" style="rounded=1;whiteSpace=wrap;html=1;" vertex="1" parent="1">
          <mxGeometry x="20" y="600" width="840" height="130" as="geometry"/>
        </mxCell>
        <mxCell id="9VM56Yk_VsYJPP7YuBCW-12" value="" style="rounded=1;whiteSpace=wrap;html=1;" vertex="1" parent="1">
          <mxGeometry x="20" y="320" width="840" height="220" as="geometry"/>
        </mxCell>
        <mxCell id="9VM56Yk_VsYJPP7YuBCW-1" value="paas能力代理模块" style="rounded=1;whiteSpace=wrap;html=1;" vertex="1" parent="1">
          <mxGeometry x="80" y="450" width="730" height="60" as="geometry"/>
        </mxCell>
        <mxCell id="9VM56Yk_VsYJPP7YuBCW-2" value="IM消息投递服务" style="rounded=1;whiteSpace=wrap;html=1;" vertex="1" parent="1">
          <mxGeometry x="70" y="640" width="120" height="60" as="geometry"/>
        </mxCell>
        <mxCell id="9VM56Yk_VsYJPP7YuBCW-3" value="文件存储服务服务" style="rounded=1;whiteSpace=wrap;html=1;" vertex="1" parent="1">
          <mxGeometry x="660" y="640" width="120" height="60" as="geometry"/>
        </mxCell>
        <mxCell id="9VM56Yk_VsYJPP7YuBCW-4" value="GPS轨迹定位服务" style="rounded=1;whiteSpace=wrap;html=1;" vertex="1" parent="1">
          <mxGeometry x="260" y="640" width="120" height="60" as="geometry"/>
        </mxCell>
        <mxCell id="9VM56Yk_VsYJPP7YuBCW-5" value="音视频服务" style="rounded=1;whiteSpace=wrap;html=1;" vertex="1" parent="1">
          <mxGeometry x="460" y="640" width="120" height="60" as="geometry"/>
        </mxCell>
        <mxCell id="9VM56Yk_VsYJPP7YuBCW-6" value="设备模块" style="rounded=1;whiteSpace=wrap;html=1;" vertex="1" parent="1">
          <mxGeometry x="540" y="360" width="120" height="60" as="geometry"/>
        </mxCell>
        <mxCell id="9VM56Yk_VsYJPP7YuBCW-7" value="权限管理模块" style="rounded=1;whiteSpace=wrap;html=1;" vertex="1" parent="1">
          <mxGeometry x="220" y="360" width="120" height="60" as="geometry"/>
        </mxCell>
        <mxCell id="9VM56Yk_VsYJPP7YuBCW-8" value="用户管理模块" style="rounded=1;whiteSpace=wrap;html=1;" vertex="1" parent="1">
          <mxGeometry x="70" y="360" width="120" height="60" as="geometry"/>
        </mxCell>
        <mxCell id="9VM56Yk_VsYJPP7YuBCW-9" value="运维管理模块" style="rounded=1;whiteSpace=wrap;html=1;" vertex="1" parent="1">
          <mxGeometry x="690" y="360" width="120" height="60" as="geometry"/>
        </mxCell>
        <mxCell id="9VM56Yk_VsYJPP7YuBCW-10" value="群组模块" style="rounded=1;whiteSpace=wrap;html=1;" vertex="1" parent="1">
          <mxGeometry x="380" y="360" width="120" height="60" as="geometry"/>
        </mxCell>
        <mxCell id="9VM56Yk_VsYJPP7YuBCW-14" value="SaaS层" style="text;html=1;resizable=0;autosize=1;align=center;verticalAlign=middle;points=[];fillColor=none;strokeColor=none;rounded=0;" vertex="1" parent="1">
          <mxGeometry x="30" y="330" width="60" height="20" as="geometry"/>
        </mxCell>
        <mxCell id="9VM56Yk_VsYJPP7YuBCW-15" value="PaaS层" style="text;html=1;resizable=0;autosize=1;align=center;verticalAlign=middle;points=[];fillColor=none;strokeColor=none;rounded=0;" vertex="1" parent="1">
          <mxGeometry x="30" y="610" width="60" height="20" as="geometry"/>
        </mxCell>
        <mxCell id="9VM56Yk_VsYJPP7YuBCW-16" value="" style="rounded=1;whiteSpace=wrap;html=1;" vertex="1" parent="1">
          <mxGeometry x="20" y="790" width="840" height="130" as="geometry"/>
        </mxCell>
        <mxCell id="9VM56Yk_VsYJPP7YuBCW-17" value="终端设备" style="text;html=1;resizable=0;autosize=1;align=center;verticalAlign=middle;points=[];fillColor=none;strokeColor=none;rounded=0;" vertex="1" parent="1">
          <mxGeometry x="40" y="845" width="60" height="20" as="geometry"/>
        </mxCell>
        <mxCell id="9VM56Yk_VsYJPP7YuBCW-19" value="信令及IM消息" style="text;html=1;resizable=0;autosize=1;align=center;verticalAlign=middle;points=[];fillColor=none;strokeColor=none;rounded=0;" vertex="1" parent="1">
          <mxGeometry x="140" y="740" width="90" height="20" as="geometry"/>
        </mxCell>
        <mxCell id="9VM56Yk_VsYJPP7YuBCW-24" value="" style="endArrow=classic;startArrow=classic;html=1;" edge="1" parent="1" target="9VM56Yk_VsYJPP7YuBCW-2">
          <mxGeometry width="50" height="50" relative="1" as="geometry">
            <mxPoint x="129" y="792" as="sourcePoint"/>
            <mxPoint x="210" y="750" as="targetPoint"/>
          </mxGeometry>
        </mxCell>
        <mxCell id="9VM56Yk_VsYJPP7YuBCW-25" value="" style="endArrow=classic;startArrow=classic;html=1;entryX=0.07;entryY=1;entryDx=0;entryDy=0;exitX=0.5;exitY=0;exitDx=0;exitDy=0;entryPerimeter=0;" edge="1" parent="1" source="9VM56Yk_VsYJPP7YuBCW-2" target="9VM56Yk_VsYJPP7YuBCW-1">
          <mxGeometry width="50" height="50" relative="1" as="geometry">
            <mxPoint x="20" y="990" as="sourcePoint"/>
            <mxPoint x="70" y="940" as="targetPoint"/>
          </mxGeometry>
        </mxCell>
        <mxCell id="9VM56Yk_VsYJPP7YuBCW-26" value="" style="endArrow=classic;html=1;exitX=0.355;exitY=0;exitDx=0;exitDy=0;exitPerimeter=0;" edge="1" parent="1" source="9VM56Yk_VsYJPP7YuBCW-16" target="9VM56Yk_VsYJPP7YuBCW-4">
          <mxGeometry width="50" height="50" relative="1" as="geometry">
            <mxPoint x="318" y="780" as="sourcePoint"/>
            <mxPoint x="360" y="815" as="targetPoint"/>
          </mxGeometry>
        </mxCell>
        <mxCell id="9VM56Yk_VsYJPP7YuBCW-27" value="上报轨迹定位信息" style="text;html=1;resizable=0;autosize=1;align=center;verticalAlign=middle;points=[];fillColor=none;strokeColor=none;rounded=0;" vertex="1" parent="1">
          <mxGeometry x="320" y="740" width="110" height="20" as="geometry"/>
        </mxCell>
        <mxCell id="9VM56Yk_VsYJPP7YuBCW-28" value="" style="endArrow=classic;startArrow=classic;html=1;entryX=0.5;entryY=1;entryDx=0;entryDy=0;exitX=0.594;exitY=-0.008;exitDx=0;exitDy=0;exitPerimeter=0;" edge="1" parent="1" source="9VM56Yk_VsYJPP7YuBCW-16" target="9VM56Yk_VsYJPP7YuBCW-5">
          <mxGeometry width="50" height="50" relative="1" as="geometry">
            <mxPoint x="20" y="990" as="sourcePoint"/>
            <mxPoint x="70" y="940" as="targetPoint"/>
          </mxGeometry>
        </mxCell>
        <mxCell id="9VM56Yk_VsYJPP7YuBCW-29" value="实时流媒体信息" style="text;html=1;resizable=0;autosize=1;align=center;verticalAlign=middle;points=[];fillColor=none;strokeColor=none;rounded=0;" vertex="1" parent="1">
          <mxGeometry x="525" y="740" width="100" height="20" as="geometry"/>
        </mxCell>
        <mxCell id="9VM56Yk_VsYJPP7YuBCW-30" value="" style="endArrow=classic;startArrow=classic;html=1;entryX=0.329;entryY=1;entryDx=0;entryDy=0;entryPerimeter=0;" edge="1" parent="1">
          <mxGeometry width="50" height="50" relative="1" as="geometry">
            <mxPoint x="320.00187500000015" y="640" as="sourcePoint"/>
            <mxPoint x="320.1400000000001" y="510" as="targetPoint"/>
          </mxGeometry>
        </mxCell>
        <mxCell id="9VM56Yk_VsYJPP7YuBCW-31" value="" style="endArrow=classic;startArrow=classic;html=1;" edge="1" parent="1">
          <mxGeometry width="50" height="50" relative="1" as="geometry">
            <mxPoint x="520.9433962264152" y="640" as="sourcePoint"/>
            <mxPoint x="521" y="512" as="targetPoint"/>
          </mxGeometry>
        </mxCell>
        <mxCell id="9VM56Yk_VsYJPP7YuBCW-32" value="" style="endArrow=classic;startArrow=classic;html=1;" edge="1" parent="1">
          <mxGeometry width="50" height="50" relative="1" as="geometry">
            <mxPoint x="719.5033962264151" y="638" as="sourcePoint"/>
            <mxPoint x="719.56" y="510" as="targetPoint"/>
          </mxGeometry>
        </mxCell>
        <mxCell id="9VM56Yk_VsYJPP7YuBCW-34" value="" style="endArrow=classic;html=1;exitX=0.355;exitY=0;exitDx=0;exitDy=0;exitPerimeter=0;" edge="1" parent="1">
          <mxGeometry width="50" height="50" relative="1" as="geometry">
            <mxPoint x="318.65000000000003" y="790" as="sourcePoint"/>
            <mxPoint x="319.99999999999994" y="700" as="targetPoint"/>
          </mxGeometry>
        </mxCell>
        <mxCell id="9VM56Yk_VsYJPP7YuBCW-35" value="上传文件" style="text;html=1;resizable=0;autosize=1;align=center;verticalAlign=middle;points=[];fillColor=none;strokeColor=none;rounded=0;" vertex="1" parent="1">
          <mxGeometry x="741.35" y="740" width="60" height="20" as="geometry"/>
        </mxCell>
        <mxCell id="9VM56Yk_VsYJPP7YuBCW-36" value="" style="endArrow=classic;html=1;exitX=0.355;exitY=0;exitDx=0;exitDy=0;exitPerimeter=0;" edge="1" parent="1">
          <mxGeometry width="50" height="50" relative="1" as="geometry">
            <mxPoint x="715.0000000000001" y="790" as="sourcePoint"/>
            <mxPoint x="716.35" y="700" as="targetPoint"/>
          </mxGeometry>
        </mxCell>
        <mxCell id="9VM56Yk_VsYJPP7YuBCW-37" value="调度台向终端发送信令/IM消息&lt;br&gt;&lt;div style=&quot;text-align: left&quot;&gt;&lt;span&gt;查询IM消息列表&lt;/span&gt;&lt;/div&gt;" style="text;html=1;resizable=0;autosize=1;align=center;verticalAlign=middle;points=[];fillColor=none;strokeColor=none;rounded=0;" vertex="1" parent="1">
          <mxGeometry x="130" y="550" width="180" height="30" as="geometry"/>
        </mxCell>
        <mxCell id="9VM56Yk_VsYJPP7YuBCW-38" value="查询设备信息及gps&lt;br&gt;&lt;div style=&quot;text-align: left&quot;&gt;查询轨迹定位信息&lt;/div&gt;" style="text;html=1;resizable=0;autosize=1;align=center;verticalAlign=middle;points=[];fillColor=none;strokeColor=none;rounded=0;" vertex="1" parent="1">
          <mxGeometry x="330" y="550" width="120" height="30" as="geometry"/>
        </mxCell>
        <mxCell id="9VM56Yk_VsYJPP7YuBCW-40" value="创建分组&lt;br&gt;获得群组信息&lt;br&gt;&lt;div&gt;&lt;span&gt;查看群组列表&lt;/span&gt;&lt;/div&gt;" style="text;html=1;resizable=0;autosize=1;align=left;verticalAlign=middle;points=[];fillColor=none;strokeColor=none;rounded=0;" vertex="1" parent="1">
          <mxGeometry x="540" y="540" width="90" height="50" as="geometry"/>
        </mxCell>
        <mxCell id="9VM56Yk_VsYJPP7YuBCW-41" value="上传文件&lt;br&gt;查询文件列表" style="text;html=1;resizable=0;autosize=1;align=left;verticalAlign=middle;points=[];fillColor=none;strokeColor=none;rounded=0;" vertex="1" parent="1">
          <mxGeometry x="741.35" y="550" width="90" height="30" as="geometry"/>
        </mxCell>
      </root>
    </mxGraphModel>
  </diagram>
</mxfile>
